<?xml version="1.0" encoding="iso-8859-1"?>
<!-- Generator: Adobe Illustrator 19.0.0, SVG Export Plug-In . SVG Version: 6.00 Build 0)  -->
<svg xmlns="http://www.w3.org/2000/svg" xmlns:xlink="http://www.w3.org/1999/xlink" version="1.1" id="Capa_1" x="0px" y="0px" viewBox="0 0 512 512" style="enable-background:new 0 0 512 512;" xml:space="preserve" width="512px" height="512px">
<g>
	<g>
		<path d="M486.336,132.715L378.875,25.254c-33.018-33.018-90.542-33.149-123.677-0.249l-48.64,48.257l231.758,231.749    l48.254-48.619c16.392-16.523,25.43-38.437,25.43-61.729C512,171.269,502.889,149.267,486.336,132.715z" fill="#5e5e5e"/>
	</g>
</g>
<g>
	<g>
		<polygon points="185.263,94.389 77.78,201.032 310.52,433.772 417.186,326.303   " fill="#5e5e5e"/>
	</g>
</g>
<g>
	<g>
		<path d="M497,481.59H264.055l25.334-26.527L56.485,222.159l-28.081,26.869C10.356,266.942,0,291.786,0,317.216    c0,25.635,9.99,49.761,28.125,67.91l122.066,122.051c1.388,1.392,3.051,2.496,4.896,3.259c1.833,0.758,3.776,1.154,5.728,1.154    H497c8.291,0,15-6.709,15-15C512,488.299,505.291,481.59,497,481.59z" fill="#5e5e5e"/>
	</g>
</g>
<g>
</g>
<g>
</g>
<g>
</g>
<g>
</g>
<g>
</g>
<g>
</g>
<g>
</g>
<g>
</g>
<g>
</g>
<g>
</g>
<g>
</g>
<g>
</g>
<g>
</g>
<g>
</g>
<g>
</g>
</svg>
