<?xml version="1.0" encoding="iso-8859-1"?>
<!-- Generator: Adobe Illustrator 19.0.0, SVG Export Plug-In . SVG Version: 6.00 Build 0)  -->
<svg xmlns="http://www.w3.org/2000/svg" xmlns:xlink="http://www.w3.org/1999/xlink" version="1.1" id="Capa_1" x="0px" y="0px" viewBox="0 0 512 512" style="enable-background:new 0 0 512 512;" xml:space="preserve" width="512px" height="512px">
<g>
	<g>
		<path d="M448.8,192.803c-14.966,0-52.151,5.59-86.134,14.62c-22.191,5.897-39.011,12.077-50.92,18.841    c-10.655-19.894-31.643-33.461-55.746-33.461c-24.104,0-45.091,13.567-55.746,33.461c-11.909-6.764-28.729-12.944-50.92-18.841    c-33.982-9.03-71.168-14.62-86.134-14.62c-34.849,0-63.2,28.351-63.2,63.199c0,34.849,28.352,63.2,63.2,63.2    c14.966,0,52.151-5.59,86.134-14.621c22.191-5.897,39.011-12.077,50.919-18.842c10.656,19.895,31.644,33.462,55.747,33.462    c24.103,0,45.091-13.567,55.747-33.462c11.908,6.765,28.728,12.945,50.919,18.842c33.982,9.031,71.168,14.621,86.134,14.621    c34.849,0,63.2-28.352,63.2-63.2C512,221.154,483.648,192.803,448.8,192.803z" fill="#666666"/>
	</g>
</g>
<g>
	<g>
		<path d="M144.39,367.608c-7.992-7.993-15.059-16.802-21.13-26.225c-11.049,2.21-21.896,4.055-31.702,5.397    c8.488,15.346,19.111,29.53,31.62,42.04c2.929,2.929,6.768,4.394,10.606,4.394s7.678-1.465,10.606-4.393    C150.247,382.963,150.248,373.466,144.39,367.608z" fill="#666666"/>
	</g>
</g>
<g>
	<g>
		<path d="M420.463,346.782c-9.813-1.343-20.666-3.189-31.723-5.4c-23.179,35.913-60.32,61.325-102.75,69.566l22.648-33.895    c4.603-6.888,2.75-16.203-4.138-20.805c-6.889-4.604-16.203-2.75-20.806,4.138l-40.168,60.115    c-4.603,6.888-2.75,16.203,4.138,20.805l60.115,40.17c2.561,1.711,5.456,2.53,8.32,2.53c4.842,0,9.594-2.34,12.485-6.668    c4.603-6.888,2.75-16.203-4.138-20.806l-26.223-17.523C350.103,426.99,394.722,393.287,420.463,346.782z" fill="#666666"/>
	</g>
</g>
<g>
	<g>
		<path d="M388.819,123.182c-5.859-5.859-15.354-5.859-21.214-0.002c-5.858,5.857-5.858,15.356-0.001,21.213    c7.994,7.995,15.062,16.805,21.134,26.23c11.049-2.209,21.895-4.055,31.702-5.398    C411.952,149.879,401.328,135.693,388.819,123.182z" fill="#666666"/>
	</g>
</g>
<g>
	<g>
		<path d="M264.332,70.695l-60.115-40.17c-6.889-4.604-16.203-2.75-20.806,4.137c-4.602,6.889-2.75,16.203,4.138,20.807    l26.223,17.522c-51.881,12.019-96.502,45.724-122.242,92.23c9.812,1.343,20.666,3.189,31.723,5.399    c23.18-35.912,60.323-61.325,102.753-69.567l-22.646,33.895c-4.603,6.889-2.75,16.204,4.139,20.806    c2.56,1.711,5.455,2.529,8.319,2.529c4.842,0,9.594-2.34,12.485-6.668L268.47,91.5C273.073,84.611,271.22,75.297,264.332,70.695z" fill="#666666"/>
	</g>
</g>
<g>
</g>
<g>
</g>
<g>
</g>
<g>
</g>
<g>
</g>
<g>
</g>
<g>
</g>
<g>
</g>
<g>
</g>
<g>
</g>
<g>
</g>
<g>
</g>
<g>
</g>
<g>
</g>
<g>
</g>
</svg>
