<?xml version="1.0" encoding="iso-8859-1"?>
<!-- Generator: Adobe Illustrator 16.0.0, SVG Export Plug-In . SVG Version: 6.00 Build 0)  -->
<!DOCTYPE svg PUBLIC "-//W3C//DTD SVG 1.1//EN" "http://www.w3.org/Graphics/SVG/1.1/DTD/svg11.dtd">
<svg xmlns="http://www.w3.org/2000/svg" xmlns:xlink="http://www.w3.org/1999/xlink" version="1.1" id="Capa_1" x="0px" y="0px" width="512px" height="512px" viewBox="0 0 30 30" style="enable-background:new 0 0 30 30;" xml:space="preserve">
<g>
	<polygon points="12.001,12.001 16.001,12.001 16.001,6 20.001,6 14.001,0 8.001,6 12.001,6  " fill="#5e5e5e"/>
	<path d="M21.001,12.001c-3.121,0-5.869,1.588-7.483,4H0v8h12.523C13.761,27.494,17.083,30,21.001,30C25.973,30,30,25.973,30,21.001   S25.973,12.001,21.001,12.001z M6,22.001H2v-2h4V22.001z M21.001,28c-3.864-0.008-6.994-3.135-7-6.999c0.006-3.865,3.136-6.994,7-7   c3.864,0.006,6.991,3.135,6.999,7C27.992,24.865,24.865,27.992,21.001,28z" fill="#5e5e5e"/>
	<rect x="18" y="18" width="6" height="6" fill="#5e5e5e"/>
</g>
<g>
</g>
<g>
</g>
<g>
</g>
<g>
</g>
<g>
</g>
<g>
</g>
<g>
</g>
<g>
</g>
<g>
</g>
<g>
</g>
<g>
</g>
<g>
</g>
<g>
</g>
<g>
</g>
<g>
</g>
</svg>
